<svg width="70" height="51" viewBox="0 0 70 51" fill="none" xmlns="http://www.w3.org/2000/svg">
<path d="M2.74 42.14C2.74 43.22 2.96 44.18 3.4 45.02C3.88 45.82 4.5 46.52 5.26 47.12C6.06 47.68 6.96 48.1 7.96 48.38C8.96 48.66 10.02 48.8 11.14 48.8C13.7 48.8 15.66 48.22 17.02 47.06C18.42 45.86 19.44 44.28 20.08 42.32C20.72 40.32 21.08 38.02 21.16 35.42C21.28 32.82 21.34 30.1 21.34 27.26C21.34 25.78 21.34 24.22 21.34 22.58C21.34 20.9 21.32 19.24 21.28 17.6C21.28 15.96 21.26 14.38 21.22 12.86C21.22 11.34 21.2 9.96 21.16 8.72C21.16 7.48 21.16 6.44 21.16 5.6C21.16 4.76 21.16 4.2 21.16 3.92C21.16 3.56 20.98 3.3 20.62 3.14C20.3 2.94 19.88 2.8 19.36 2.72C18.88 2.64 18.36 2.6 17.8 2.6C17.24 2.56 16.76 2.54 16.36 2.54C15.92 2.54 15.44 2.5 14.92 2.42C14.4 2.3 14.14 2.04 14.14 1.64C14.14 1.2 14.42 0.939997 14.98 0.859996C15.54 0.779997 16 0.739998 16.36 0.739998H27.28C28.56 0.739998 29.38 0.819998 29.74 0.979998C30.14 1.1 30.34 1.32 30.34 1.64C30.34 2.08 30.08 2.34 29.56 2.42C29.08 2.5 28.6 2.54 28.12 2.54C27.92 2.54 27.58 2.56 27.1 2.6C26.66 2.6 26.2 2.64 25.72 2.72C25.24 2.8 24.8 2.96 24.4 3.2C24.04 3.4 23.86 3.68 23.86 4.04V33.26C23.86 39.14 22.8 43.54 20.68 46.46C18.6 49.38 15.32 50.84 10.84 50.84C9.4 50.84 8.06 50.6 6.82 50.12C5.62 49.68 4.58 49.06 3.7 48.26C2.82 47.46 2.12 46.52 1.6 45.44C1.12 44.32 0.88 43.1 0.88 41.78C0.88 41.42 0.92 40.92 1 40.28C1.12 39.6 1.34 38.94 1.66 38.3C2.02 37.62 2.5 37.04 3.1 36.56C3.74 36.04 4.6 35.78 5.68 35.78C6.08 35.78 6.54 35.94 7.06 36.26C7.58 36.58 7.84 37.08 7.84 37.76C7.84 38.56 7.58 39.14 7.06 39.5C6.58 39.82 6.1 39.98 5.62 39.98C5.3 39.98 5 39.9 4.72 39.74C4.44 39.54 4.2 39.32 4 39.08C3.48 39.28 3.14 39.7 2.98 40.34C2.82 40.94 2.74 41.54 2.74 42.14ZM33.8172 0.919999C35.8172 0.839998 37.7572 0.799997 39.6372 0.799997C41.5572 0.759997 43.7372 0.739998 46.1772 0.739998C48.6972 0.739998 51.3172 1.14 54.0372 1.94C56.7572 2.74 59.2372 4.04 61.4772 5.84C63.7172 7.64 65.5572 10 66.9972 12.92C68.4372 15.84 69.1572 19.42 69.1572 23.66C69.1572 27.26 68.6572 30.66 67.6572 33.86C66.6972 37.06 65.2372 39.86 63.2772 42.26C61.3172 44.62 58.8572 46.5 55.8972 47.9C52.9372 49.3 49.4972 50 45.5772 50H34.5372C33.8572 50 33.3172 49.96 32.9172 49.88C32.5572 49.8 32.3772 49.6 32.3772 49.28C32.3772 49 32.5172 48.78 32.7972 48.62C33.0772 48.42 33.5572 48.32 34.2372 48.32C34.7572 48.32 35.3172 48.32 35.9172 48.32C36.5572 48.28 37.1372 48.22 37.6572 48.14C38.2172 48.06 38.6772 47.92 39.0372 47.72C39.3972 47.52 39.5772 47.24 39.5772 46.88C39.5772 44.56 39.5772 42.6 39.5772 41C39.5772 39.4 39.5772 37.8 39.5772 36.2C39.6172 34.6 39.6372 32.86 39.6372 30.98C39.6372 29.06 39.6372 26.66 39.6372 23.78C39.6372 23.02 39.6172 21.8 39.5772 20.12C39.5372 18.44 39.4772 16.66 39.3972 14.78C39.3572 12.9 39.3172 11.08 39.2772 9.32C39.2372 7.56 39.2172 6.18 39.2172 5.18C39.2172 4.58 39.0972 4.12 38.8572 3.8C38.6172 3.44 38.2572 3.18 37.7772 3.02C37.3372 2.86 36.7972 2.76 36.1572 2.72C35.5172 2.68 34.7772 2.66 33.9372 2.66C33.4172 2.66 33.0572 2.56 32.8572 2.36C32.6572 2.12 32.5572 1.9 32.5572 1.7C32.5572 1.22 32.9772 0.959998 33.8172 0.919999ZM45.8172 2.84C45.2172 2.84 44.5972 2.88 43.9572 2.96C43.3172 3 42.6972 3.04 42.0972 3.08V47.36C42.0972 47.52 42.2172 47.64 42.4572 47.72C42.7372 47.8 43.0572 47.86 43.4172 47.9C43.7772 47.94 44.1772 47.96 44.6172 47.96C45.0572 47.96 45.4572 47.96 45.8172 47.96C49.4172 47.96 52.5172 47.34 55.1172 46.1C57.7172 44.86 59.8572 43.16 61.5372 41C63.2172 38.8 64.4572 36.22 65.2572 33.26C66.0572 30.3 66.4572 27.1 66.4572 23.66C66.4572 20.78 66.0572 18.08 65.2572 15.56C64.4572 13.04 63.2172 10.84 61.5372 8.96C59.8572 7.08 57.7172 5.6 55.1172 4.52C52.5172 3.4 49.4172 2.84 45.8172 2.84Z" fill="black"/>
</svg>
